<mxfile host="app.diagrams.net" agent="Mozilla/5.0 (X11; Ubuntu; Linux x86_64; rv:137.0) Gecko/20100101 Firefox/137.0" version="26.2.13">
  <diagram name="Página-1" id="15A47lHbJFely5gJiPTT">
    <mxGraphModel dx="2260" dy="868" grid="1" gridSize="10" guides="1" tooltips="1" connect="1" arrows="1" fold="1" page="1" pageScale="1" pageWidth="827" pageHeight="1169" math="0" shadow="0">
      <root>
        <mxCell id="0" />
        <mxCell id="1" parent="0" />
        <mxCell id="GlLxwcqYNelY6lSzfNYr-3" value="" style="swimlane;startSize=0;" vertex="1" parent="1">
          <mxGeometry x="220" y="100" width="400" height="670" as="geometry" />
        </mxCell>
        <mxCell id="GlLxwcqYNelY6lSzfNYr-10" value="Crear distintos bancos de preguntas" style="ellipse;whiteSpace=wrap;html=1;" vertex="1" parent="GlLxwcqYNelY6lSzfNYr-3">
          <mxGeometry x="130" y="140" width="160" height="100" as="geometry" />
        </mxCell>
        <mxCell id="GlLxwcqYNelY6lSzfNYr-11" value="Crear examenes dinamicos con un banco de preguntas" style="ellipse;whiteSpace=wrap;html=1;" vertex="1" parent="GlLxwcqYNelY6lSzfNYr-3">
          <mxGeometry x="140" y="370" width="160" height="80" as="geometry" />
        </mxCell>
        <mxCell id="GlLxwcqYNelY6lSzfNYr-12" value="Asignar examees dinamicos a alumnos " style="ellipse;whiteSpace=wrap;html=1;" vertex="1" parent="GlLxwcqYNelY6lSzfNYr-3">
          <mxGeometry x="140" y="460" width="160" height="80" as="geometry" />
        </mxCell>
        <mxCell id="GlLxwcqYNelY6lSzfNYr-13" value="Ver resultados de los examenes por alumno" style="ellipse;whiteSpace=wrap;html=1;" vertex="1" parent="GlLxwcqYNelY6lSzfNYr-3">
          <mxGeometry x="140" y="550" width="160" height="80" as="geometry" />
        </mxCell>
        <mxCell id="GlLxwcqYNelY6lSzfNYr-14" value="Editar o Eliminar preguntas y respuestas del banco de pregutnas" style="ellipse;whiteSpace=wrap;html=1;" vertex="1" parent="GlLxwcqYNelY6lSzfNYr-3">
          <mxGeometry x="130" y="250" width="180" height="110" as="geometry" />
        </mxCell>
        <mxCell id="GlLxwcqYNelY6lSzfNYr-28" value="Iniciar sesión con correo institucional" style="ellipse;whiteSpace=wrap;html=1;" vertex="1" parent="GlLxwcqYNelY6lSzfNYr-3">
          <mxGeometry x="130" y="20" width="160" height="100" as="geometry" />
        </mxCell>
        <object label="Actor" Docente="" id="GlLxwcqYNelY6lSzfNYr-4">
          <mxCell style="shape=umlActor;verticalLabelPosition=bottom;verticalAlign=top;html=1;outlineConnect=0;" vertex="1" parent="1">
            <mxGeometry x="80" y="310" width="100" height="140" as="geometry" />
          </mxCell>
        </object>
        <mxCell id="GlLxwcqYNelY6lSzfNYr-23" value="" style="endArrow=classic;html=1;rounded=0;entryX=0.016;entryY=0.59;entryDx=0;entryDy=0;entryPerimeter=0;" edge="1" parent="1" target="GlLxwcqYNelY6lSzfNYr-10">
          <mxGeometry width="50" height="50" relative="1" as="geometry">
            <mxPoint x="200" y="340" as="sourcePoint" />
            <mxPoint x="260" y="280" as="targetPoint" />
          </mxGeometry>
        </mxCell>
        <mxCell id="GlLxwcqYNelY6lSzfNYr-24" value="" style="endArrow=classic;html=1;rounded=0;entryX=0;entryY=0.5;entryDx=0;entryDy=0;" edge="1" parent="1" target="GlLxwcqYNelY6lSzfNYr-14">
          <mxGeometry width="50" height="50" relative="1" as="geometry">
            <mxPoint x="200" y="350" as="sourcePoint" />
            <mxPoint x="373" y="189" as="targetPoint" />
          </mxGeometry>
        </mxCell>
        <mxCell id="GlLxwcqYNelY6lSzfNYr-25" value="" style="endArrow=classic;html=1;rounded=0;entryX=0;entryY=0.5;entryDx=0;entryDy=0;" edge="1" parent="1" target="GlLxwcqYNelY6lSzfNYr-11">
          <mxGeometry width="50" height="50" relative="1" as="geometry">
            <mxPoint x="200" y="370" as="sourcePoint" />
            <mxPoint x="360" y="295" as="targetPoint" />
          </mxGeometry>
        </mxCell>
        <mxCell id="GlLxwcqYNelY6lSzfNYr-26" value="" style="endArrow=classic;html=1;rounded=0;entryX=0;entryY=0.375;entryDx=0;entryDy=0;entryPerimeter=0;" edge="1" parent="1" target="GlLxwcqYNelY6lSzfNYr-12">
          <mxGeometry width="50" height="50" relative="1" as="geometry">
            <mxPoint x="200" y="390" as="sourcePoint" />
            <mxPoint x="370" y="400" as="targetPoint" />
          </mxGeometry>
        </mxCell>
        <mxCell id="GlLxwcqYNelY6lSzfNYr-27" value="" style="endArrow=classic;html=1;rounded=0;entryX=-0.009;entryY=0.394;entryDx=0;entryDy=0;entryPerimeter=0;" edge="1" parent="1" target="GlLxwcqYNelY6lSzfNYr-13">
          <mxGeometry width="50" height="50" relative="1" as="geometry">
            <mxPoint x="190" y="400" as="sourcePoint" />
            <mxPoint x="370" y="490" as="targetPoint" />
          </mxGeometry>
        </mxCell>
        <mxCell id="GlLxwcqYNelY6lSzfNYr-29" value="" style="endArrow=classic;html=1;rounded=0;entryX=0;entryY=0.5;entryDx=0;entryDy=0;" edge="1" parent="1" target="GlLxwcqYNelY6lSzfNYr-28">
          <mxGeometry width="50" height="50" relative="1" as="geometry">
            <mxPoint x="200" y="330" as="sourcePoint" />
            <mxPoint x="363" y="309" as="targetPoint" />
          </mxGeometry>
        </mxCell>
      </root>
    </mxGraphModel>
  </diagram>
</mxfile>
